<svg xmlns="http://www.w3.org/2000/svg" width="1200" height="630" viewBox="0 0 1200 630">
  <defs><linearGradient id="bg" x1="0" y1="0" x2="1" y2="1"><stop stop-color="#f8fafc"/><stop offset="1" stop-color="#e2e8f0"/></linearGradient></defs>
  <rect width="1200" height="630" rx="0" fill="url(#bg)"/>
  <circle cx="1080" cy="90" r="180" fill="#0891b2" opacity="0.12"/>
  <circle cx="90" cy="580" r="150" fill="#0891b2" opacity="0.10"/>
  <text x="70" y="90" fill="#111827" font-family="Arial, PingFang SC, sans-serif" font-size="46" font-weight="800">Aphelion Pulsar Blog</text>
  <text x="72" y="130" fill="#0891b2" font-family="Arial, PingFang SC, sans-serif" font-size="24" font-weight="700">Next.js · TypeScript · SQLite · Server Actions</text>
  <rect x="300" y="135" width="600" height="285" rx="18" fill="#020617"/><circle cx="430" cy="235" r="90" fill="#0891b2" opacity="0.25"/><rect x="550" y="175" width="270" height="34" rx="8" fill="#164e63"/><rect x="550" y="230" width="220" height="24" rx="8" fill="#155e75"/><rect x="550" y="274" width="250" height="24" rx="8" fill="#155e75"/><rect x="550" y="318" width="180" height="24" rx="8" fill="#155e75"/>
  <rect x="70" y="440" width="180" height="70" rx="14" fill="#ffffff" opacity="0.94"/><text x="90" y="470" fill="#111827" font-size="18" font-weight="700">Markdown</text><text x="90" y="494" fill="#4b5563" font-size="13">blog system</text><rect x="275" y="440" width="180" height="70" rx="14" fill="#ffffff" opacity="0.94"/><text x="295" y="470" fill="#111827" font-size="18" font-weight="700">User</text><text x="295" y="494" fill="#4b5563" font-size="13">profile / social gra</text><rect x="480" y="440" width="180" height="70" rx="14" fill="#ffffff" opacity="0.94"/><text x="500" y="470" fill="#111827" font-size="18" font-weight="700">Comments</text><text x="500" y="494" fill="#4b5563" font-size="13">and follows</text><rect x="685" y="440" width="180" height="70" rx="14" fill="#ffffff" opacity="0.94"/><text x="705" y="470" fill="#111827" font-size="18" font-weight="700">Responsive</text><text x="705" y="494" fill="#4b5563" font-size="13">neon UI</text>
  <text x="70" y="585" fill="#64748b" font-family="Arial, PingFang SC, sans-serif" font-size="18">github.com/aspinojony · project showcase</text>
</svg>